<svg viewBox="0 0 200 60" preserveAspectRatio="xMidYMid meet" focusable="false" style="pointer-events: none; display: block; width: 100%; height: 100%;">
<g viewBox="0 0 200 60" preserveAspectRatio="xMidYMid meet" >
            <g id="">
            <path fill="#282828" d="M 0,720 H 1280 V 0 H 0 Z"></path>
            <path fill="#282828" d="M 0,0 V 73.348 H 15.3 V -0.149 c 0,-11.55 12.449,-17.249 23.549,-17.249 10.949,0 23.399,5.849 23.399,17.398 V 73.348 H 77.547 V -0.149 c 0,-21.299 -20.699,-32.399 -38.698,-32.399 C 20.399,-32.548 0,-21.448 0,0"></path>
            <path fill="#282828" d="M 0,0 H -15.149 V 104.996 H -2.85 l 34.649,-50.998 34.648,50.998 h 12 V 0 h -15 V 73.947 L 35.998,33.148 H 27.449 L 0,73.947 Z"></path>
            <path fill="#282828" d="m 0,0 h 26.099 l -12.9,37.049 z M 26.099,0 H 0 C -4.05,-9.6 -15,-36.448 -18.3,-45.147 H -34.649 L 7.499,61.198 h 11.1 L 60.747,-45.147 H 44.548 Z"></path>
            <path fill="#282828" d="m 0,0 c -2.1,9.45 -12.299,13.5 -21.449,13.35 -7.05,-0.15 -14.849,-2.55 -19.049,-7.95 -2.1,-2.7 -2.85,-6.15 -2.55,-9.75 0.75,-10.799 12.6,-12.149 23.849,-13.199 14.399,-1.8 32.249,-5.55 36.299,-22.349 0.45,-2.25 0.75,-4.8 0.75,-6.9 0,-20.25 -20.1,-31.949 -38.998,-31.949 -16.201,0 -35.849,9.6 -37.799,28.349 l -0.151,2.85 15.3,0.3 0.151,-2.25 v 0.6 c 1.049,-9.749 12.899,-14.849 22.648,-14.849 11.25,0 23.549,6.299 23.549,17.099 0,1.049 -0.15,2.25 -0.449,3.599 -1.801,7.95 -12.6,9.3 -23.1,10.35 -16.35,1.65 -35.549,5.25 -37.198,27.149 V -5.7 c -0.6,7.05 1.2,14.1 5.7,19.95 7.049,9.149 19.648,13.949 31.798,13.949 16.2,0 32.999,-8.4 35.699,-27.599 z"></path>
            <path fill="#282828" d="m 0,0 c -2.1,9.45 -12.299,13.5 -21.449,13.35 -7.05,-0.15 -14.849,-2.55 -19.049,-7.95 -2.1,-2.7 -2.85,-6.15 -2.55,-9.75 0.75,-10.799 12.6,-12.149 23.849,-13.199 14.399,-1.8 32.249,-5.55 36.299,-22.349 0.45,-2.25 0.75,-4.8 0.75,-6.9 0,-20.25 -20.1,-31.949 -38.998,-31.949 -16.201,0 -35.849,9.6 -37.799,28.349 l -0.151,2.85 15.3,0.3 0.151,-2.25 v 0.6 c 1.049,-9.749 12.899,-14.849 22.648,-14.849 11.25,0 23.549,6.299 23.549,17.099 0,1.049 -0.15,2.25 -0.449,3.599 -1.801,7.95 -12.6,9.3 -23.1,10.35 -16.35,1.65 -35.549,5.25 -37.198,27.149 V -5.7 c -0.6,7.05 1.2,14.1 5.7,19.95 7.049,9.149 19.648,13.949 31.798,13.949 16.2,0 32.999,-8.4 35.699,-27.599 z"></path>
            <path fill="#282828" d="M 0,0 H 17.369 V 105.22 H 0.922"></path>
            <path fill="#282828" d="m 0,0 c 18,3.149 27.149,17.25 27.149,32.099 0,16.649 -11.399,33.448 -34.199,33.448 l -23.703,-0.15 0.066,-15.255 c 0.133,-0.001 0.261,-0.009 0.388,-0.019 v 0.125 H -7.05 C 5.7,50.248 12,41.099 12,32.099 12,22.949 5.7,13.8 -7.05,13.8 H -24.749 V 6.6 L 13.5,-39.448 h 19.649 z"></path>
            <path fill="#282828" d="M 0,0 17.691,0.51 C 52.026,-0.441 69.992,25.171 70.719,51.409 71.446,77.648 54.93,104.365 20.594,105.316 L 2.931,105.805 2.492,89.965 20.175,90.172 C 44.465,89.499 56.24,70.417 55.725,51.824 55.21,33.232 42.4,14.981 18.11,15.654 l -17.66,0.59"></path>
          </g>
          </g>
        </svg>